Coordinates
version=1
nRows=17
nColumns=38
inDegrees=no

Units are S.I. units (second, meters, Newtons, ...)
If the header above contains a line with 'inDegrees', this indicates whether rotational values are in degrees (yes) or radians (no).

endheader
time	pelvis_tilt	pelvis_list	pelvis_rotation	pelvis_tx	pelvis_ty	pelvis_tz	hip_flexion_r	hip_adduction_r	hip_rotation_r	knee_angle_r	ankle_angle_r	subtalar_angle_r	mtp_angle_r	hip_flexion_l	hip_adduction_l	hip_rotation_l	knee_angle_l	ankle_angle_l	subtalar_angle_l	mtp_angle_l	lumbar_extension	lumbar_bending	lumbar_rotation	arm_flex_r	arm_add_r	arm_rot_r	elbow_flex_r	pro_sup_r	wrist_flex_r	wrist_dev_r	arm_flex_l	arm_add_l	arm_rot_l	elbow_flex_l	pro_sup_l	wrist_flex_l	wrist_dev_l
2.43	2.86338	1.30517	-1.12736	0.639803	1.44514	0.949389	0.010845	0.0666828	-0.129806	0.269589	-0.36561	0	0	-0.46978	-0.220966	-0.201317	0.639766	-0.33531	0	0	-0.343619	0.148694	-0.268807	0.0769895	-0.321299	0.520678	0.719874	1.38856	0	0	-0.0462159	-0.300546	0.192091	0.933148	1.5708	0	0
2.44	2.84216	1.30076	-1.11019	0.641988	1.45633	0.950436	-0.00122176	0.0787072	-0.129443	0.271446	-0.361635	0	0	-0.452245	-0.234462	-0.196594	0.693562	-0.357098	0	0	-0.343243	0.153673	-0.265868	0.0761916	-0.323742	0.527724	0.725329	1.38885	0	0	-0.0605655	-0.29999	0.190194	0.929668	1.5708	0	0
2.45	2.8237	1.29689	-1.09543	0.644018	1.46729	0.951346	-0.0137402	0.0892303	-0.131856	0.273523	-0.354951	0	0	-0.431411	-0.246474	-0.188933	0.749785	-0.379587	0	0	-0.342833	0.158077	-0.263337	0.0760801	-0.327167	0.535957	0.73242	1.3883	0	0	-0.0746775	-0.299709	0.18822	0.927217	1.5708	0	0
2.46	2.80794	1.29422	-1.0826	0.645765	1.47792	0.952069	-0.0253597	0.0975754	-0.138555	0.277147	-0.345449	0	0	-0.406577	-0.256372	-0.177887	0.808373	-0.400413	0	0	-0.341935	0.161855	-0.261411	0.0767652	-0.331475	0.544831	0.740793	1.3862	0	0	-0.0878994	-0.299632	0.187264	0.925101	1.5708	0	0
2.47	2.79462	1.29261	-1.07089	0.64718	1.48821	0.952656	-0.0362838	0.104194	-0.14745	0.281142	-0.334121	0	0	-0.378628	-0.264275	-0.163817	0.868464	-0.414896	0	0	-0.340464	0.165251	-0.260224	0.0785422	-0.336821	0.554866	0.749724	1.38377	0	0	-0.0996582	-0.299745	0.187945	0.922656	1.5708	0	0
2.48	2.78655	1.28818	-1.06282	0.648522	1.4985	0.953464	-0.0527453	0.111731	-0.149975	0.28074	-0.32351	0	0	-0.353634	-0.272552	-0.150474	0.927265	-0.422547	0	0	-0.341744	0.168764	-0.259191	0.0805195	-0.342031	0.564425	0.758612	1.3815	0	0	-0.11068	-0.300735	0.18963	0.921264	1.5708	0	0
2.49	2.77772	1.28621	-1.05812	0.650214	1.50843	0.954113	-0.0654163	0.118378	-0.150301	0.280826	-0.313371	0	0	-0.326318	-0.277917	-0.140171	0.986859	-0.425018	0	0	-0.342546	0.170217	-0.253976	0.0839229	-0.347344	0.57442	0.767388	1.37747	0	0	-0.120747	-0.301719	0.190911	0.920667	1.5708	0	0
2.5	2.77603	1.28406	-1.06206	0.652096	1.51776	0.954955	-0.0785211	0.123201	-0.146959	0.279638	-0.307214	0	0	-0.299688	-0.280642	-0.132128	1.0448	-0.426337	0	0	-0.345712	0.16916	-0.246275	0.088777	-0.350662	0.58179	0.773703	1.37324	0	0	-0.128636	-0.303311	0.192398	0.920188	1.5708	0	0
2.51	2.77913	1.28142	-1.06759	0.65359	1.52698	0.956017	-0.0942606	0.126863	-0.145671	0.27382	-0.303463	0	0	-0.27252	-0.283236	-0.123697	1.1012	-0.428257	0	0	-0.349743	0.168085	-0.240357	0.0935708	-0.35308	0.587039	0.778595	1.36928	0	0	-0.135128	-0.305093	0.194824	0.919031	1.5708	0	0
2.52	2.78698	1.27869	-1.07576	0.654853	1.5362	0.957245	-0.112099	0.129301	-0.145993	0.26475	-0.301682	0	0	-0.24565	-0.284485	-0.11462	1.15381	-0.425612	0	0	-0.354008	0.16625	-0.235397	0.0982807	-0.354681	0.591148	0.781741	1.36481	0	0	-0.140714	-0.306714	0.196981	0.917467	1.5708	0	0
2.53	2.79847	1.27563	-1.0867	0.656085	1.54536	0.958559	-0.131674	0.131255	-0.146961	0.254205	-0.301139	0	0	-0.220103	-0.284089	-0.105481	1.20148	-0.410495	0	0	-0.358826	0.163435	-0.23057	0.103535	-0.356066	0.596123	0.783721	1.35881	0	0	-0.146144	-0.308675	0.198507	0.916767	1.5708	0	0
2.54	2.8143	1.27202	-1.10322	0.657455	1.55438	0.959964	-0.152445	0.132278	-0.145305	0.244764	-0.299915	0	0	-0.197327	-0.28161	-0.0986099	1.24244	-0.383902	0	0	-0.364976	0.158789	-0.224723	0.110047	-0.356773	0.601833	0.784135	1.35368	0	0	-0.152272	-0.310657	0.197412	0.917866	1.5708	0	0
2.55	2.83269	1.26852	-1.12269	0.658788	1.56337	0.96138	-0.173589	0.132307	-0.143196	0.236094	-0.297379	0	0	-0.175308	-0.277481	-0.0936361	1.27823	-0.354593	0	0	-0.371313	0.152868	-0.219218	0.117618	-0.356787	0.608068	0.783028	1.35041	0	0	-0.159587	-0.312206	0.193294	0.920395	1.5708	0	0
2.56	2.8537	1.26522	-1.14431	0.659923	1.57216	0.962738	-0.194528	0.130943	-0.141978	0.228202	-0.294126	0	0	-0.153214	-0.271473	-0.0887125	1.30984	-0.327197	0	0	-0.37792	0.14618	-0.215258	0.126733	-0.356583	0.615412	0.781132	1.34882	0	0	-0.167997	-0.313045	0.185824	0.924453	1.5708	0	0
2.57	2.87528	1.26236	-1.16737	0.66103	1.58081	0.964006	-0.21439	0.128676	-0.140878	0.221947	-0.290033	0	0	-0.131295	-0.264685	-0.0860742	1.33626	-0.305139	0	0	-0.38446	0.13869	-0.211829	0.137627	-0.356008	0.624138	0.778133	1.34883	0	0	-0.177759	-0.313214	0.175178	0.930075	1.5708	0	0
2.58	2.89692	1.26002	-1.19181	0.662204	1.58945	0.965182	-0.233216	0.125488	-0.139825	0.216221	-0.285799	0	0	-0.109834	-0.257397	-0.0856278	1.35645	-0.289649	0	0	-0.390541	0.130246	-0.208793	0.150032	-0.35467	0.634036	0.773834	1.35031	0	0	-0.189144	-0.312843	0.161542	0.937068	1.5708	0	0
2.59	2.91865	1.25716	-1.21636	0.663354	1.59839	0.966369	-0.253267	0.12216	-0.141034	0.208544	-0.283048	0	0	-0.0904264	-0.24964	-0.0850399	1.36968	-0.278588	0	0	-0.396242	0.121597	-0.206865	0.162723	-0.352652	0.644636	0.768666	1.35306	0	0	-0.201988	-0.311982	0.146226	0.944409	1.5708	0	0
